<svg xmlns="http://www.w3.org/2000/svg" width="67" height="56" fill="none" viewBox="0 0 67 56"><path fill="#D6F1FF" d="M49.915 11.68s10.353 2.146 15.592-2.052l-.73 2.643L67 13.826s-6.097 4.01-13.718 1.772l-3.367-3.918ZM31.832 11.683S21.48 13.83 16.24 9.631l.73 2.643-2.222 1.555s6.097 4.01 13.718 1.772l3.366-3.918ZM50.328 4.155l.953 2.115a2.103 2.103 0 0 1-1.651 2.954c-1.906.28-4.669.435-7.908-.25a.698.698 0 0 1-.285-1.243c2.032-1.555 6.764-4.073 8.891-3.576Z"/><path fill="#85D6FF" d="M40.07 8.011S51.917 6.705 50.2 3.907C48.106.487 40.07 8.01 40.07 8.01Z"/><path fill="#D6F1FF" d="m32.45 1.886-1.588 1.71a2.114 2.114 0 0 0 .603 3.327A22.454 22.454 0 0 0 39.087 9.1c.603.062 1.016-.591.666-1.089"/><path fill="#85D6FF" d="M40.96 8.664s-10.86-4.85-8.32-6.996c3.08-2.612 8.32 6.996 8.32 6.996Z"/><path fill="#1BA0E2" d="M61.189 22.439H38.515L19.43 12.55l22.642-.591 19.117 10.479Z"/><path fill="#1870C9" d="m58.616 21.04-17.37-.125-16.227-8.955h18.45l15.147 9.08Z"/><path fill="#85D6FF" d="M43.755 12.55V7.7H19.398v4.85"/><path fill="#D6F1FF" d="M34.831 12.55V7.7h-6.478v4.85"/><path fill="#1BA0E2" d="M43.755 12.644V7.7l18.132 10.883-.095 3.95"/><path fill="#FCA000" d="M61.275 26.425c.656-.709.019-1.887-.938-1.76-1.29.17-2.825.33-4.255.37-1.221.032-2.345-.625-2.86-1.689-.242-.494-.46-.96-.639-1.355a1.046 1.046 0 0 0-1.555-.417c-2.715 1.946-5.742 3.787-7.989 5.088-.867.501-1.927.532-2.826.157-2.47-1.095-5.679-3.03-7.45-4.136-.62-.386-1.44-.013-1.567.706l-.042.239c-.321 1.752-2.184 2.816-3.951 2.252-.958-.315-1.853.93-1.2 1.698l.988 1.163a1 1 0 0 1 .205.394l1.192 4.54a1 1 0 0 0 .967.746h27.638a1 1 0 0 0 .963-.732l1.21-4.336c.16-.626.513-1.189.963-1.69l1.146-1.238Z"/><path fill="#85D6FF" d="m60.998 22.035-.857-5.504-3.43-1.741-5.113 2.518L44.93 29.87l8.415 4.26.984.498L61 22.035Zm-5.05-1.804a.976.976 0 0 1-.444-1.337c.064-.124.16-.218.254-.311.318-.249.762-.31 1.112-.124.508.248.699.84.444 1.337-.063.093-.127.217-.222.28a1.03 1.03 0 0 1-1.143.155Z"/><path fill="#1BA0E2" d="M52.995 28.813c1.79 0 3.24-1.42 3.24-3.172 0-1.751-1.45-3.171-3.24-3.171-1.788 0-3.239 1.42-3.239 3.171 0 1.752 1.45 3.172 3.24 3.172Z"/><path fill="#85D6FF" d="m57.505 20.107-2.255-5.13-3.747-.872-4.319 3.67-3.27 13.805 9.24 2.053 1.08.248 3.271-13.774Zm-5.335-.529c-.54-.124-.89-.653-.762-1.181.032-.125.095-.25.159-.343.222-.342.635-.497 1.048-.404.54.125.889.653.762 1.182a1.493 1.493 0 0 1-.127.342c-.223.342-.667.497-1.08.404Z"/><path stroke="#1871C9" stroke-linecap="round" stroke-linejoin="round" stroke-miterlimit="10" d="m51.503 14.105 3.747.871 2.255 5.13-3.27 13.775-1.08-.248m-.985-14.055c-.54-.124-.89-.653-.762-1.181a1.14 1.14 0 0 1 .159-.343c.222-.342.635-.497 1.048-.404.54.125.889.653.762 1.182a1.498 1.498 0 0 1-.127.342c-.222.342-.667.497-1.08.404Z"/><path fill="#1BA0E2" d="M50.71 28.013c1.788 0 3.238-1.42 3.238-3.172 0-1.752-1.45-3.172-3.239-3.172s-3.239 1.42-3.239 3.172c0 1.752 1.45 3.172 3.24 3.172Z"/><path fill="#85D6FF" d="M49.619 24.839c-.398-.072-.657-.428-.585-.805.07-.37.443-.623.84-.551.394.07.654.439.585.808-.072.378-.447.619-.84.548Zm-.838 1.401 2.702-2.418.599.108-2.703 2.418-.598-.108Zm.927-1.873a.217.217 0 0 0 .255-.169c.021-.11-.06-.222-.178-.244-.118-.02-.234.056-.255.166a.213.213 0 0 0 .178.247Zm.715 1.52c.07-.37.443-.624.84-.552.394.071.654.44.584.809-.07.377-.446.619-.84.547-.397-.072-.656-.427-.584-.804Zm.496.085a.213.213 0 0 0 .177.248.217.217 0 0 0 .256-.17c.02-.11-.06-.222-.178-.243-.118-.021-.234.055-.255.165Z"/><path fill="#FCA000" d="M34.422 16.252h-2.278v10.835h2.278a5.398 5.398 0 0 0 5.22-5.577 5.372 5.372 0 0 0-5.22-5.258Z"/><path fill="#FC0" d="M32.113 27.087c2.97 0 5.378-2.426 5.378-5.418s-2.408-5.417-5.378-5.417-5.378 2.425-5.378 5.417 2.408 5.418 5.378 5.418Z"/><path stroke="#FAA500" stroke-linecap="round" stroke-linejoin="round" stroke-width=".75" d="M30.866 23.147v-2.01c0-.689.559-1.247 1.248-1.247h.026c.675 0 1.221.547 1.221 1.221v.182a1.04 1.04 0 0 1-1.04 1.04v0m3.328-.814c0 1.911-1.583 3.46-3.535 3.46-1.952 0-3.535-1.549-3.535-3.46 0-1.912 1.583-3.461 3.535-3.461 1.952 0 3.535 1.55 3.535 3.46Z"/><path fill="#FCA000" d="M12.261 15.35H9.46v12.64h2.801c3.692-.091 6.589-3.024 6.462-6.502-.096-3.357-2.929-6.048-6.462-6.139Z"/><path fill="#FC0" d="M9.396 27.99c3.674 0 6.653-2.83 6.653-6.32 0-3.491-2.979-6.32-6.653-6.32-3.674 0-6.652 2.829-6.652 6.32 0 3.49 2.978 6.32 6.652 6.32Z"/><path stroke="#FAA500" stroke-linecap="round" stroke-linejoin="round" stroke-width=".75" d="M8.104 23.147v-2.01c0-.689.559-1.247 1.248-1.247h.026c.675 0 1.222.547 1.222 1.221v.182a1.04 1.04 0 0 1-1.04 1.04v0m3.327-.814c0 1.911-1.583 3.46-3.535 3.46-1.952 0-3.535-1.549-3.535-3.46 0-1.912 1.583-3.461 3.535-3.461 1.952 0 3.535 1.55 3.535 3.46Z"/><path fill="#FCA000" d="M13.932.3h-1.957v9.03h1.957c2.556-.078 4.553-2.15 4.473-4.652-.08-2.384-2.037-4.299-4.473-4.377Z"/><path fill="#FC0" d="M11.935 9.29c2.537 0 4.593-2.012 4.593-4.494C16.528 2.313 14.472.3 11.935.3S7.342 2.313 7.342 4.796c0 2.482 2.056 4.495 4.593 4.495Z"/><path stroke="#FAA500" stroke-linecap="round" stroke-linejoin="round" stroke-width=".75" d="M11.085 5.948V4.55c0-.48.388-.868.867-.868h.018c.47 0 .85.38.85.85v.127c0 .4-.324.723-.723.723v0m2.314-.567c0 1.33-1.1 2.408-2.459 2.408-1.358 0-2.458-1.078-2.458-2.408 0-1.33 1.1-2.407 2.458-2.407s2.46 1.078 2.46 2.407Z"/><path fill="#FCA000" d="M58.896 0h-1.528v7.223h1.528a3.6 3.6 0 0 0 3.492-3.72C62.357 1.594 60.829.062 58.896 0Z"/><path fill="#FC0" d="M57.368 7.192a3.59 3.59 0 0 0 3.586-3.596A3.59 3.59 0 0 0 57.368 0a3.59 3.59 0 0 0-3.585 3.596 3.59 3.59 0 0 0 3.585 3.596Z"/><path stroke="#FAA500" stroke-linecap="round" stroke-linejoin="round" stroke-width=".75" d="M56.712 4.603V3.38c0-.42.34-.76.76-.76h.016c.41 0 .743.333.743.744v.11c0 .35-.283.633-.633.633v0m2.025-.495c0 1.163-.963 2.106-2.151 2.106-1.189 0-2.152-.943-2.152-2.106 0-1.164.963-2.107 2.152-2.107 1.188 0 2.151.943 2.151 2.107Z"/><path fill="#FFF08F" d="M37.213 25.144c0-.996.808-1.804 1.804-1.804h6.809a1.803 1.803 0 0 1 0 3.607h-6.81a1.803 1.803 0 0 1-1.803-1.803Z"/><path fill="#FC0" d="M37.213 28.59c0-.997.808-1.804 1.804-1.804h6.809a1.803 1.803 0 0 1 0 3.607h-6.81a1.803 1.803 0 0 1-1.803-1.804Z"/><path fill="#FFF08F" d="M26.735 28.59c0-.997.808-1.804 1.803-1.804h6.81a1.803 1.803 0 0 1 0 3.607h-6.81a1.803 1.803 0 0 1-1.803-1.804Z"/><path fill="#1BA0E2" d="M61.887 28.892H36.132a6 6 0 0 0-6 6v11.631a6 6 0 0 0 6 6h19.755a6 6 0 0 0 6-6V28.892Z"/><path fill="#85D6FF" d="M43.64 28.893H23.047v17.776a6 6 0 0 0 6 6h8.593a6 6 0 0 0 6-6V28.893Z"/><path fill="#1BA0E2" d="M37.8 37.894c0-2.35-2.02-4.252-4.457-4.184-1.998.055-3.75 1.717-4.052 3.306a4.034 4.034 0 0 0 1.34 3.972v4.223c0 1.296 1.079 2.341 2.418 2.341h1.08c1.339 0 2.419-1.045 2.419-2.341v-4.349a4.1 4.1 0 0 0 1.252-2.968Z"/><path fill="#F2F3F3" d="M48.37 41.25s.128 0 .287-.062c.158-.062.38-.217.698-.217.35 0 .794.217 1.048.342.19.093.477-.063.477-.063s.38-.497.285-1.088c-.158-.84-.762-1.959-.38-2.83.666-1.523 2.762-2.02 2.762-2.02s-.095 1.181-.127 2.176v1.15c-.064.28.89 4.26 1.81 5.069.762.902 2.16 1.524 2.16 1.524s-.35-.094-.35-.063c0 .032 0 .156.095.187-.317-.187-1.397-.746-2.762-1.12-1.302-.373-2.604-.466-3.589-.901-1.016-.436-.92-1.306-2.127-1.773-1.016-.404-2.731-.715-2.731-.715l2.445.405Z"/><path fill="#F2F3F3" d="M54.817 42.432c.064-.28.826-1.586 1.81-2.83 1.08-1.399 2.35-2.704 2.35-2.704s-1.429.155-2.89.621c-.571.187-1.143.436-1.588.622 0 0-.127 2.736.318 4.478v-.187Z"/><path fill="#D6F1FF" d="M54.5 38.172c-.604.28-1.048.498-1.048.498-.064.28.889 4.26 1.81 5.068-.286-.342-.445-.715-.445-1.088-.444-1.741-.317-4.478-.317-4.478Z"/><path stroke="#DB330E" stroke-linecap="round" stroke-linejoin="round" stroke-miterlimit="10" d="M5.398 35.12c.703-.45 1.661-.878 2.747-1.264.638-.215 1.245-.407 1.852-.536"/><path fill="#FCA000" fill-rule="evenodd" d="M8.334 37.683c0-3.915 2.646-7.065 5.923-7.065 2.973 0 5.426 2.618 5.856 6.005h14.015a.66.66 0 0 1 .661.648v4.592c-.03.5-.42.912-.901.912h-.331a.927.927 0 0 1-.932-.912v-2.738H30.31v1.413c0 .5-.42.913-.932.913h-.45a.927.927 0 0 1-.933-.913v-1.413h-7.939c-.556 3.218-2.937 5.623-5.8 5.623-3.276 0-5.922-3.18-5.922-7.065Zm2.886 0c0 2.267 1.353 4.092 3.037 4.092 1.683 0 3.036-1.825 3.036-4.092 0-2.267-1.353-4.092-3.036-4.092-1.684 0-3.037 1.825-3.037 4.092Z" clip-rule="evenodd"/><path fill="#FF5E1F" fill-rule="evenodd" d="M1.791 49.999a6 6 0 0 0 7.105 4.6l.932-.197a6 6 0 0 0 4.594-7.269l-1.346-5.616a6 6 0 0 0-2.6-3.655l-.573-.366a6 6 0 0 0-8.225 1.72l-.265.398a6 6 0 0 0-.874 4.603l1.252 5.782ZM6.94 38.715c0 .61-.505 1.105-1.128 1.105a1.117 1.117 0 0 1-1.128-1.105c0-.61.505-1.105 1.128-1.105.623 0 1.128.495 1.128 1.105Z" clip-rule="evenodd"/><path fill="#FFC6AF" d="M7.192 45.837c.996 0 1.804-.791 1.804-1.767 0-.975-.808-1.766-1.804-1.766s-1.804.79-1.804 1.766.808 1.767 1.804 1.767ZM11.821 49.781l-6.764 1.501-.54-2.355c-.211-.883.36-1.736 1.262-1.943l3.517-.794a1.654 1.654 0 0 1 1.984 1.236l.541 2.355Z"/><path stroke="#DB330E" stroke-linecap="round" stroke-linejoin="round" stroke-miterlimit="10" d="M14.578 33.827c-.15 1.118-1.744 2.678-3.969 3.826-2.284 1.178-4.54 1.531-5.561.972"/></svg>