<svg xmlns="http://www.w3.org/2000/svg" width="12" height="12" fill="none" viewBox="0 0 12 12"><path fill="#0BC175" d="M5.138 6.467v.455a.69.69 0 0 1-1.38 0v-.455a1.5 1.5 0 0 0-1.5-1.5h-.597a.661.661 0 1 1 0-1.322h.598a1.5 1.5 0 0 0 1.5-1.5V1.69a.69.69 0 0 1 1.379 0v.455a1.5 1.5 0 0 0 1.5 1.5h.597a.661.661 0 1 1 0 1.322h-.597a1.5 1.5 0 0 0-1.5 1.5ZM7.897 7.062v.136c0 .457-.37.827-.827.827h-.236a.661.661 0 1 0 0 1.322h.236c.457 0 .827.37.827.827v.136a.69.69 0 1 0 1.379 0v-.136c0-.457.37-.827.826-.827h.237a.661.661 0 1 0 0-1.322h-.237a.826.826 0 0 1-.826-.827v-.136a.69.69 0 1 0-1.38 0Z"/></svg>