<svg width="16" height="16" viewBox="0 0 16 16" fill="none" xmlns="http://www.w3.org/2000/svg">
<circle cx="8" cy="8" r="7" stroke="#687176" stroke-width="2"></circle>
<path fill-rule="evenodd" clip-rule="evenodd" d="M5.62059 5.41694C5.49164 4.81322 5.9848 4.24997 6.64233 4.24997H7.00147C7.42754 4.24997 7.81068 4.49285 7.96892 4.86326L8 4.93601L8.03108 4.86326C8.18932 4.49285 8.57246 4.24997 8.99853 4.24997H9.35767C10.0152 4.24997 10.5084 4.81322 10.3794 5.41694L10.3199 5.69569C10.2536 6.00578 10.0347 6.25679 9.7452 6.3857H11.0643C11.5811 6.3857 12 6.80461 12 7.32137C12 7.77411 11.6784 8.15175 11.2513 8.23836H4.74874C4.32155 8.15175 4 7.77411 4 7.32137C4 6.80461 4.41891 6.3857 4.93567 6.3857H6.2548C5.96529 6.25679 5.74637 6.00578 5.68013 5.69569L5.62059 5.41694ZM8.65959 5.64373H9.29813C9.36908 5.64373 9.43017 5.59683 9.44409 5.53168L9.50363 5.25293C9.52205 5.16669 9.4516 5.08622 9.35767 5.08622H8.99853C8.93767 5.08622 8.88293 5.12092 8.86033 5.17384L8.65959 5.64373ZM7.34041 5.64373H6.70187C6.63092 5.64373 6.56983 5.59683 6.55591 5.53168L6.49637 5.25293C6.47795 5.16669 6.5484 5.08622 6.64233 5.08622H7.00147C7.06233 5.08622 7.11707 5.12092 7.13967 5.17384L7.34041 5.64373Z" fill="#687176"></path>
<path d="M4.66667 8.9869V10.25C4.66667 10.9863 5.26362 11.5833 6 11.5833H7.52018V8.9869H4.66667Z" fill="#687176"></path>
<path d="M8.48988 11.5833H10C10.7364 11.5833 11.3333 10.9863 11.3333 10.25V8.9869H8.48988V11.5833Z" fill="#687176"></path>
</svg>