<svg xmlns="http://www.w3.org/2000/svg" width="16" height="16" fill="none" viewBox="0 0 16 16"><path fill="#FFDC00" stroke="#FFDC00" stroke-linecap="round" stroke-linejoin="round" d="m12 1.563.818 1.499 1.678.314-1.173 1.241.22 1.694L12 5.58l-1.543.732.22-1.694-1.174-1.24 1.68-.315.817-1.5Z"/><path fill="#FFDC00" fill-rule="evenodd" d="M5.92 4.44 4.216 8.097V15h3.706c1.16 0 2.164-.864 2.416-2.079l.624-3.016c.025-.121.038-.245.038-.37 0-.94-.71-1.703-1.588-1.703H8.01a.462.462 0 0 1-.076-.007c-.27-.044-.455-.315-.413-.605l.274-1.914c.076-.53-.227-1.036-.706-1.183l-.3-.092c-.344-.106-.709.067-.869.41ZM3.474 8.628H2.237C1.554 8.628 1 9.222 1 9.956v3.716C1 14.406 1.554 15 2.237 15h1.237V8.628Z" clip-rule="evenodd"/></svg>