<svg width="16" height="16" viewBox="0 0 16 16" fill="none" xmlns="http://www.w3.org/2000/svg">
<path d="M7 7C7 8.10457 6.10457 9 5 9C3.89543 9 3 8.10457 3 7C3 5.89543 3.89543 5 5 5C6.10457 5 7 5.89543 7 7Z" stroke="#687176" stroke-width="2" stroke-linecap="round" stroke-linejoin="round"></path>
<path d="M8 14H2C2 14 2 10.5 5 10.5C8 10.5 8 14 8 14Z" stroke="#687176" stroke-width="2" stroke-linecap="round" stroke-linejoin="round"></path>
<path d="M14 14V2H7V2.5M14 14H14.5M14 14H11M9 5H11.5M11 8V9" stroke="#687176" stroke-width="2" stroke-linecap="round" stroke-linejoin="round"></path>
</svg>